# xmcd CD database file
#
# Track frame offsets:
#	150
#	22431
#	55410
#	93037
#	126820
#	152950
#
# Disc length: 2768 seconds
#
# Revision: 0
# Processed by: cddbd v1.5.2PL0 Copyright (c) Steve Scherf et al.
# Submitted via: CDex 1.51
#
DISCID=4d0ace06
DTITLE=Brian Chawley - This Way
DYEAR=2007
DGENRE=Jazz
TTITLE0=Mollie By Matchlight, Sonia By Sunlight
TTITLE1=Gee, Laila
TTITLE2=Seeking Clarity
TTITLE3=Skating Laurie
TTITLE4=Out Of Focus
TTITLE5=What You Mean To Me
EXTD=YEAR: 2007
EXTT0=
EXTT1=
EXTT2=
EXTT3=
EXTT4=
EXTT5=
PLAYORDER=
